<?xml version="1.0" standalone="no"?>
<!DOCTYPE svg PUBLIC "-//W3C//DTD SVG 1.1//EN" "http://www.w3.org/Graphics/SVG/1.1/DTD/svg11.dtd">
<svg xmlns:xlink="http://www.w3.org/1999/xlink" width="100.076ex" height="5.676ex" style="vertical-align: -2.005ex;" viewBox="0 -1580.7 43088.1 2443.8" xmlns="http://www.w3.org/2000/svg">
<defs>
<path stroke-width="10" id="E1-MJMATHI-64" d="M366 683Q367 683 438 688T511 694Q523 694 523 686Q523 679 450 384T375 83T374 68Q374 26 402 26Q411 27 422 35Q443 55 463 131Q469 151 473 152Q475 153 483 153H487H491Q506 153 506 145Q506 140 503 129Q490 79 473 48T445 8T417 -8Q409 -10 393 -10Q359 -10 336 5T306 36L300 51Q299 52 296 50Q294 48 292 46Q233 -10 172 -10Q117 -10 75 30T33 157Q33 205 53 255T101 341Q148 398 195 420T280 442Q336 442 364 400Q369 394 369 396Q370 400 396 505T424 616Q424 629 417 632T378 637H357Q351 643 351 645T353 664Q358 683 366 683ZM352 326Q329 405 277 405Q242 405 210 374T160 293Q131 214 119 129Q119 126 119 118T118 106Q118 61 136 44T179 26Q233 26 290 98L298 109L352 326Z"></path>
<path stroke-width="10" id="E1-MJMATHI-78" d="M52 289Q59 331 106 386T222 442Q257 442 286 424T329 379Q371 442 430 442Q467 442 494 420T522 361Q522 332 508 314T481 292T458 288Q439 288 427 299T415 328Q415 374 465 391Q454 404 425 404Q412 404 406 402Q368 386 350 336Q290 115 290 78Q290 50 306 38T341 26Q378 26 414 59T463 140Q466 150 469 151T485 153H489Q504 153 504 145Q504 144 502 134Q486 77 440 33T333 -11Q263 -11 227 52Q186 -10 133 -10H127Q78 -10 57 16T35 71Q35 103 54 123T99 143Q142 143 142 101Q142 81 130 66T107 46T94 41L91 40Q91 39 97 36T113 29T132 26Q168 26 194 71Q203 87 217 139T245 247T261 313Q266 340 266 352Q266 380 251 392T217 404Q177 404 142 372T93 290Q91 281 88 280T72 278H58Q52 284 52 289Z"></path>
<path stroke-width="10" id="E1-MJMAIN-28" d="M94 250Q94 319 104 381T127 488T164 576T202 643T244 695T277 729T302 750H315H319Q333 750 333 741Q333 738 316 720T275 667T226 581T184 443T167 250T184 58T225 -81T274 -167T316 -220T333 -241Q333 -250 318 -250H315H302L274 -226Q180 -141 137 -14T94 250Z"></path>
<path stroke-width="10" id="E1-MJMATHI-66" d="M118 -162Q120 -162 124 -164T135 -167T147 -168Q160 -168 171 -155T187 -126Q197 -99 221 27T267 267T289 382V385H242Q195 385 192 387Q188 390 188 397L195 425Q197 430 203 430T250 431Q298 431 298 432Q298 434 307 482T319 540Q356 705 465 705Q502 703 526 683T550 630Q550 594 529 578T487 561Q443 561 443 603Q443 622 454 636T478 657L487 662Q471 668 457 668Q445 668 434 658T419 630Q412 601 403 552T387 469T380 433Q380 431 435 431Q480 431 487 430T498 424Q499 420 496 407T491 391Q489 386 482 386T428 385H372L349 263Q301 15 282 -47Q255 -132 212 -173Q175 -205 139 -205Q107 -205 81 -186T55 -132Q55 -95 76 -78T118 -61Q162 -61 162 -103Q162 -122 151 -136T127 -157L118 -162Z"></path>
<path stroke-width="10" id="E1-MJMAIN-29" d="M60 749L64 750Q69 750 74 750H86L114 726Q208 641 251 514T294 250Q294 182 284 119T261 12T224 -76T186 -143T145 -194T113 -227T90 -246Q87 -249 86 -250H74Q66 -250 63 -250T58 -247T55 -238Q56 -237 66 -225Q221 -64 221 250T66 725Q56 737 55 738Q55 746 60 749Z"></path>
<path stroke-width="10" id="E1-MJMATHI-67" d="M311 43Q296 30 267 15T206 0Q143 0 105 45T66 160Q66 265 143 353T314 442Q361 442 401 394L404 398Q406 401 409 404T418 412T431 419T447 422Q461 422 470 413T480 394Q480 379 423 152T363 -80Q345 -134 286 -169T151 -205Q10 -205 10 -137Q10 -111 28 -91T74 -71Q89 -71 102 -80T116 -111Q116 -121 114 -130T107 -144T99 -154T92 -162L90 -164H91Q101 -167 151 -167Q189 -167 211 -155Q234 -144 254 -122T282 -75Q288 -56 298 -13Q311 35 311 43ZM384 328L380 339Q377 350 375 354T369 368T359 382T346 393T328 402T306 405Q262 405 221 352Q191 313 171 233T151 117Q151 38 213 38Q269 38 323 108L331 118L384 328Z"></path>
<path stroke-width="10" id="E1-MJSZ2-28" d="M180 96T180 250T205 541T266 770T353 944T444 1069T527 1150H555Q561 1144 561 1141Q561 1137 545 1120T504 1072T447 995T386 878T330 721T288 513T272 251Q272 133 280 56Q293 -87 326 -209T399 -405T475 -531T536 -609T561 -640Q561 -643 555 -649H527Q483 -612 443 -568T353 -443T266 -270T205 -41Z"></path>
<path stroke-width="10" id="E1-MJSZ2-29" d="M35 1138Q35 1150 51 1150H56H69Q113 1113 153 1069T243 944T330 771T391 541T416 250T391 -40T330 -270T243 -443T152 -568T69 -649H56Q43 -649 39 -647T35 -637Q65 -607 110 -548Q283 -316 316 56Q324 133 324 251Q324 368 316 445Q278 877 48 1123Q36 1137 35 1138Z"></path>
<path stroke-width="10" id="E1-MJMAIN-3D" d="M56 347Q56 360 70 367H707Q722 359 722 347Q722 336 708 328L390 327H72Q56 332 56 347ZM56 153Q56 168 72 173H708Q722 163 722 153Q722 140 707 133H70Q56 140 56 153Z"></path>
<path stroke-width="10" id="E1-MJMAIN-2212" d="M84 237T84 250T98 270H679Q694 262 694 250T679 230H98Q84 237 84 250Z"></path>
<path stroke-width="10" id="E1-MJMAIN-31" d="M213 578L200 573Q186 568 160 563T102 556H83V602H102Q149 604 189 617T245 641T273 663Q275 666 285 666Q294 666 302 660V361L303 61Q310 54 315 52T339 48T401 46H427V0H416Q395 3 257 3Q121 3 100 0H88V46H114Q136 46 152 46T177 47T193 50T201 52T207 57T213 61V578Z"></path>
<path stroke-width="10" id="E1-MJMAIN-2B" d="M56 237T56 250T70 270H369V420L370 570Q380 583 389 583Q402 583 409 568V270H707Q722 262 722 250T707 230H409V-68Q401 -82 391 -82H389H387Q375 -82 369 -68V230H70Q56 237 56 250Z"></path>
<path stroke-width="10" id="E1-MJMAIN-6C" d="M42 46H56Q95 46 103 60V68Q103 77 103 91T103 124T104 167T104 217T104 272T104 329Q104 366 104 407T104 482T104 542T103 586T103 603Q100 622 89 628T44 637H26V660Q26 683 28 683L38 684Q48 685 67 686T104 688Q121 689 141 690T171 693T182 694H185V379Q185 62 186 60Q190 52 198 49Q219 46 247 46H263V0H255L232 1Q209 2 183 2T145 3T107 3T57 1L34 0H26V46H42Z"></path>
<path stroke-width="10" id="E1-MJMAIN-6E" d="M41 46H55Q94 46 102 60V68Q102 77 102 91T102 122T103 161T103 203Q103 234 103 269T102 328V351Q99 370 88 376T43 385H25V408Q25 431 27 431L37 432Q47 433 65 434T102 436Q119 437 138 438T167 441T178 442H181V402Q181 364 182 364T187 369T199 384T218 402T247 421T285 437Q305 442 336 442Q450 438 463 329Q464 322 464 190V104Q464 66 466 59T477 49Q498 46 526 46H542V0H534L510 1Q487 2 460 2T422 3Q319 3 310 0H302V46H318Q379 46 379 62Q380 64 380 200Q379 335 378 343Q372 371 358 385T334 402T308 404Q263 404 229 370Q202 343 195 315T187 232V168V108Q187 78 188 68T191 55T200 49Q221 46 249 46H265V0H257L234 1Q210 2 183 2T145 3Q42 3 33 0H25V46H41Z"></path>
<path stroke-width="10" id="E1-MJMAIN-2C" d="M78 35T78 60T94 103T137 121Q165 121 187 96T210 8Q210 -27 201 -60T180 -117T154 -158T130 -185T117 -194Q113 -194 104 -185T95 -172Q95 -168 106 -156T131 -126T157 -76T173 -3V9L172 8Q170 7 167 6T161 3T152 1T140 0Q113 0 96 17Z"></path>
<path stroke-width="10" id="E1-MJMAIN-69" d="M69 609Q69 637 87 653T131 669Q154 667 171 652T188 609Q188 579 171 564T129 549Q104 549 87 564T69 609ZM247 0Q232 3 143 3Q132 3 106 3T56 1L34 0H26V46H42Q70 46 91 49Q100 53 102 60T104 102V205V293Q104 345 102 359T88 378Q74 385 41 385H30V408Q30 431 32 431L42 432Q52 433 70 434T106 436Q123 437 142 438T171 441T182 442H185V62Q190 52 197 50T232 46H255V0H247Z"></path>
<path stroke-width="10" id="E1-MJMAIN-66" d="M273 0Q255 3 146 3Q43 3 34 0H26V46H42Q70 46 91 49Q99 52 103 60Q104 62 104 224V385H33V431H104V497L105 564L107 574Q126 639 171 668T266 704Q267 704 275 704T289 705Q330 702 351 679T372 627Q372 604 358 590T321 576T284 590T270 627Q270 647 288 667H284Q280 668 273 668Q245 668 223 647T189 592Q183 572 182 497V431H293V385H185V225Q185 63 186 61T189 57T194 54T199 51T206 49T213 48T222 47T231 47T241 46T251 46H282V0H273Z"></path>
<path stroke-width="10" id="E1-MJMAIN-3E" d="M84 520Q84 528 88 533T96 539L99 540Q106 540 253 471T544 334L687 265Q694 260 694 250T687 235Q685 233 395 96L107 -40H101Q83 -38 83 -20Q83 -19 83 -17Q82 -10 98 -1Q117 9 248 71Q326 108 378 132L626 250L378 368Q90 504 86 509Q84 513 84 520Z"></path>
<path stroke-width="10" id="E1-MJMAIN-30" d="M96 585Q152 666 249 666Q297 666 345 640T423 548Q460 465 460 320Q460 165 417 83Q397 41 362 16T301 -15T250 -22Q224 -22 198 -16T137 16T82 83Q39 165 39 320Q39 494 96 585ZM321 597Q291 629 250 629Q208 629 178 597Q153 571 145 525T137 333Q137 175 145 125T181 46Q209 16 250 16Q290 16 318 46Q347 76 354 130T362 333Q362 478 354 524T321 597Z"></path>
<path stroke-width="10" id="E1-MJMAIN-61" d="M137 305T115 305T78 320T63 359Q63 394 97 421T218 448Q291 448 336 416T396 340Q401 326 401 309T402 194V124Q402 76 407 58T428 40Q443 40 448 56T453 109V145H493V106Q492 66 490 59Q481 29 455 12T400 -6T353 12T329 54V58L327 55Q325 52 322 49T314 40T302 29T287 17T269 6T247 -2T221 -8T190 -11Q130 -11 82 20T34 107Q34 128 41 147T68 188T116 225T194 253T304 268H318V290Q318 324 312 340Q290 411 215 411Q197 411 181 410T156 406T148 403Q170 388 170 359Q170 334 154 320ZM126 106Q126 75 150 51T209 26Q247 26 276 49T315 109Q317 116 318 175Q318 233 317 233Q309 233 296 232T251 223T193 203T147 166T126 106Z"></path>
<path stroke-width="10" id="E1-MJMAIN-64" d="M376 495Q376 511 376 535T377 568Q377 613 367 624T316 637H298V660Q298 683 300 683L310 684Q320 685 339 686T376 688Q393 689 413 690T443 693T454 694H457V390Q457 84 458 81Q461 61 472 55T517 46H535V0Q533 0 459 -5T380 -11H373V44L365 37Q307 -11 235 -11Q158 -11 96 50T34 215Q34 315 97 378T244 442Q319 442 376 393V495ZM373 342Q328 405 260 405Q211 405 173 369Q146 341 139 305T131 211Q131 155 138 120T173 59Q203 26 251 26Q322 26 373 103V342Z"></path>
<path stroke-width="10" id="E1-MJMAIN-65" d="M28 218Q28 273 48 318T98 391T163 433T229 448Q282 448 320 430T378 380T406 316T415 245Q415 238 408 231H126V216Q126 68 226 36Q246 30 270 30Q312 30 342 62Q359 79 369 104L379 128Q382 131 395 131H398Q415 131 415 121Q415 117 412 108Q393 53 349 21T250 -11Q155 -11 92 58T28 218ZM333 275Q322 403 238 411H236Q228 411 220 410T195 402T166 381T143 340T127 274V267H333V275Z"></path>
<path stroke-width="10" id="E1-MJMAIN-78" d="M201 0Q189 3 102 3Q26 3 17 0H11V46H25Q48 47 67 52T96 61T121 78T139 96T160 122T180 150L226 210L168 288Q159 301 149 315T133 336T122 351T113 363T107 370T100 376T94 379T88 381T80 383Q74 383 44 385H16V431H23Q59 429 126 429Q219 429 229 431H237V385Q201 381 201 369Q201 367 211 353T239 315T268 274L272 270L297 304Q329 345 329 358Q329 364 327 369T322 376T317 380T310 384L307 385H302V431H309Q324 428 408 428Q487 428 493 431H499V385H492Q443 385 411 368Q394 360 377 341T312 257L296 236L358 151Q424 61 429 57T446 50Q464 46 499 46H516V0H510H502Q494 1 482 1T457 2T432 2T414 3Q403 3 377 3T327 1L304 0H295V46H298Q309 46 320 51T331 63Q331 65 291 120L250 175Q249 174 219 133T185 88Q181 83 181 74Q181 63 188 55T206 46Q208 46 208 23V0H201Z"></path>
<path stroke-width="10" id="E1-MJMAIN-73" d="M295 316Q295 356 268 385T190 414Q154 414 128 401Q98 382 98 349Q97 344 98 336T114 312T157 287Q175 282 201 278T245 269T277 256Q294 248 310 236T342 195T359 133Q359 71 321 31T198 -10H190Q138 -10 94 26L86 19L77 10Q71 4 65 -1L54 -11H46H42Q39 -11 33 -5V74V132Q33 153 35 157T45 162H54Q66 162 70 158T75 146T82 119T101 77Q136 26 198 26Q295 26 295 104Q295 133 277 151Q257 175 194 187T111 210Q75 227 54 256T33 318Q33 357 50 384T93 424T143 442T187 447H198Q238 447 268 432L283 424L292 431Q302 440 314 448H322H326Q329 448 335 442V310L329 304H301Q295 310 295 316Z"></path>
<path stroke-width="10" id="E1-MJMAIN-74" d="M27 422Q80 426 109 478T141 600V615H181V431H316V385H181V241Q182 116 182 100T189 68Q203 29 238 29Q282 29 292 100Q293 108 293 146V181H333V146V134Q333 57 291 17Q264 -10 221 -10Q187 -10 162 2T124 33T105 68T98 100Q97 107 97 248V385H18V422H27Z"></path>
<path stroke-width="10" id="E1-MJMAIN-2E" d="M78 60Q78 84 95 102T138 120Q162 120 180 104T199 61Q199 36 182 18T139 0T96 17T78 60Z"></path>
</defs>
<g stroke="currentColor" fill="currentColor" stroke-width="0" transform="matrix(1 0 0 -1 0 0)">
<g transform="translate(120,0)">
<rect stroke="none" width="1225" height="60" x="0" y="220"></rect>
 <use xlink:href="#E1-MJMATHI-64" x="348" y="676"></use>
<g transform="translate(60,-724)">
 <use xlink:href="#E1-MJMATHI-64" x="0" y="0"></use>
 <use xlink:href="#E1-MJMATHI-78" x="528" y="0"></use>
</g>
</g>
<g transform="translate(1631,0)">
 <use xlink:href="#E1-MJSZ2-28"></use>
 <use xlink:href="#E1-MJMATHI-66" x="602" y="0"></use>
 <use xlink:href="#E1-MJMAIN-28" x="1157" y="0"></use>
 <use xlink:href="#E1-MJMATHI-78" x="1551" y="0"></use>
<g transform="translate(2128,0)">
 <use xlink:href="#E1-MJMAIN-29" x="0" y="0"></use>
<g transform="translate(394,412)">
 <use transform="scale(0.707)" xlink:href="#E1-MJMATHI-67" x="0" y="0"></use>
 <use transform="scale(0.707)" xlink:href="#E1-MJMAIN-28" x="485" y="0"></use>
 <use transform="scale(0.707)" xlink:href="#E1-MJMATHI-78" x="879" y="0"></use>
 <use transform="scale(0.707)" xlink:href="#E1-MJMAIN-29" x="1456" y="0"></use>
</g>
</g>
 <use xlink:href="#E1-MJSZ2-29" x="3930" y="-1"></use>
</g>
 <use xlink:href="#E1-MJMAIN-3D" x="6441" y="0"></use>
 <use xlink:href="#E1-MJMATHI-67" x="7502" y="0"></use>
 <use xlink:href="#E1-MJMAIN-28" x="7987" y="0"></use>
 <use xlink:href="#E1-MJMATHI-78" x="8381" y="0"></use>
 <use xlink:href="#E1-MJMAIN-29" x="8958" y="0"></use>
 <use xlink:href="#E1-MJMATHI-66" x="9352" y="0"></use>
 <use xlink:href="#E1-MJMAIN-28" x="9907" y="0"></use>
 <use xlink:href="#E1-MJMATHI-78" x="10301" y="0"></use>
<g transform="translate(10878,0)">
 <use xlink:href="#E1-MJMAIN-29" x="0" y="0"></use>
<g transform="translate(394,412)">
 <use transform="scale(0.707)" xlink:href="#E1-MJMATHI-67" x="0" y="0"></use>
 <use transform="scale(0.707)" xlink:href="#E1-MJMAIN-28" x="485" y="0"></use>
 <use transform="scale(0.707)" xlink:href="#E1-MJMATHI-78" x="879" y="0"></use>
 <use transform="scale(0.707)" xlink:href="#E1-MJMAIN-29" x="1456" y="0"></use>
 <use transform="scale(0.707)" xlink:href="#E1-MJMAIN-2212" x="1850" y="0"></use>
 <use transform="scale(0.707)" xlink:href="#E1-MJMAIN-31" x="2633" y="0"></use>
</g>
</g>
<g transform="translate(13591,0)">
<g transform="translate(120,0)">
<rect stroke="none" width="1225" height="60" x="0" y="220"></rect>
<g transform="translate(71,734)">
 <use xlink:href="#E1-MJMATHI-64" x="0" y="0"></use>
 <use xlink:href="#E1-MJMATHI-66" x="528" y="0"></use>
</g>
<g transform="translate(60,-724)">
 <use xlink:href="#E1-MJMATHI-64" x="0" y="0"></use>
 <use xlink:href="#E1-MJMATHI-78" x="528" y="0"></use>
</g>
</g>
</g>
 <use xlink:href="#E1-MJMAIN-2B" x="15278" y="0"></use>
 <use xlink:href="#E1-MJMATHI-66" x="16283" y="0"></use>
 <use xlink:href="#E1-MJMAIN-28" x="16838" y="0"></use>
 <use xlink:href="#E1-MJMATHI-78" x="17232" y="0"></use>
<g transform="translate(17809,0)">
 <use xlink:href="#E1-MJMAIN-29" x="0" y="0"></use>
<g transform="translate(394,412)">
 <use transform="scale(0.707)" xlink:href="#E1-MJMATHI-67" x="0" y="0"></use>
 <use transform="scale(0.707)" xlink:href="#E1-MJMAIN-28" x="485" y="0"></use>
 <use transform="scale(0.707)" xlink:href="#E1-MJMATHI-78" x="879" y="0"></use>
 <use transform="scale(0.707)" xlink:href="#E1-MJMAIN-29" x="1456" y="0"></use>
</g>
</g>
<g transform="translate(19778,0)">
 <use xlink:href="#E1-MJMAIN-6C"></use>
 <use xlink:href="#E1-MJMAIN-6E" x="283" y="0"></use>
</g>
<g transform="translate(20789,0)">
 <use xlink:href="#E1-MJMAIN-28" x="0" y="0"></use>
 <use xlink:href="#E1-MJMATHI-66" x="394" y="0"></use>
 <use xlink:href="#E1-MJMAIN-28" x="949" y="0"></use>
 <use xlink:href="#E1-MJMATHI-78" x="1343" y="0"></use>
 <use xlink:href="#E1-MJMAIN-29" x="1920" y="0"></use>
 <use xlink:href="#E1-MJMAIN-29" x="2314" y="0"></use>
</g>
<g transform="translate(23497,0)">
<g transform="translate(120,0)">
<rect stroke="none" width="1225" height="60" x="0" y="220"></rect>
<g transform="translate(106,734)">
 <use xlink:href="#E1-MJMATHI-64" x="0" y="0"></use>
 <use xlink:href="#E1-MJMATHI-67" x="528" y="0"></use>
</g>
<g transform="translate(60,-724)">
 <use xlink:href="#E1-MJMATHI-64" x="0" y="0"></use>
 <use xlink:href="#E1-MJMATHI-78" x="528" y="0"></use>
</g>
</g>
</g>
 <use xlink:href="#E1-MJMAIN-2C" x="24962" y="0"></use>
<g transform="translate(27411,0)">
 <use xlink:href="#E1-MJMAIN-69"></use>
 <use xlink:href="#E1-MJMAIN-66" x="283" y="0"></use>
</g>
 <use xlink:href="#E1-MJMATHI-66" x="28255" y="0"></use>
 <use xlink:href="#E1-MJMAIN-28" x="28810" y="0"></use>
 <use xlink:href="#E1-MJMATHI-78" x="29204" y="0"></use>
 <use xlink:href="#E1-MJMAIN-29" x="29781" y="0"></use>
 <use xlink:href="#E1-MJMAIN-3E" x="30453" y="0"></use>
 <use xlink:href="#E1-MJMAIN-30" x="31514" y="0"></use>
 <use xlink:href="#E1-MJMAIN-2C" x="32019" y="0"></use>
<g transform="translate(32469,0)">
 <use xlink:href="#E1-MJMAIN-61" x="250" y="0"></use>
 <use xlink:href="#E1-MJMAIN-6E" x="755" y="0"></use>
 <use xlink:href="#E1-MJMAIN-64" x="1316" y="0"></use>
 <use xlink:href="#E1-MJMAIN-69" x="2127" y="0"></use>
 <use xlink:href="#E1-MJMAIN-66" x="2410" y="0"></use>
</g>
<g transform="translate(35440,0)">
<g transform="translate(120,0)">
<rect stroke="none" width="1225" height="60" x="0" y="220"></rect>
<g transform="translate(71,734)">
 <use xlink:href="#E1-MJMATHI-64" x="0" y="0"></use>
 <use xlink:href="#E1-MJMATHI-66" x="528" y="0"></use>
</g>
<g transform="translate(60,-724)">
 <use xlink:href="#E1-MJMATHI-64" x="0" y="0"></use>
 <use xlink:href="#E1-MJMATHI-78" x="528" y="0"></use>
</g>
</g>
</g>
<g transform="translate(36905,0)">
 <use xlink:href="#E1-MJMAIN-61" x="250" y="0"></use>
 <use xlink:href="#E1-MJMAIN-6E" x="755" y="0"></use>
 <use xlink:href="#E1-MJMAIN-64" x="1316" y="0"></use>
</g>
<g transform="translate(39032,0)">
<g transform="translate(120,0)">
<rect stroke="none" width="1225" height="60" x="0" y="220"></rect>
<g transform="translate(106,734)">
 <use xlink:href="#E1-MJMATHI-64" x="0" y="0"></use>
 <use xlink:href="#E1-MJMATHI-67" x="528" y="0"></use>
</g>
<g transform="translate(60,-724)">
 <use xlink:href="#E1-MJMATHI-64" x="0" y="0"></use>
 <use xlink:href="#E1-MJMATHI-78" x="528" y="0"></use>
</g>
</g>
</g>
<g transform="translate(40497,0)">
 <use xlink:href="#E1-MJMAIN-65" x="250" y="0"></use>
 <use xlink:href="#E1-MJMAIN-78" x="699" y="0"></use>
 <use xlink:href="#E1-MJMAIN-69" x="1232" y="0"></use>
 <use xlink:href="#E1-MJMAIN-73" x="1515" y="0"></use>
 <use xlink:href="#E1-MJMAIN-74" x="1914" y="0"></use>
 <use xlink:href="#E1-MJMAIN-2E" x="2308" y="0"></use>
</g>
</g>
</svg>